<mxfile host="app.diagrams.net" modified="2024-03-12T18:31:46.184Z" agent="Mozilla/5.0 (Windows NT 10.0; Win64; x64) AppleWebKit/537.36 (KHTML, like Gecko) Chrome/122.0.0.0 Safari/537.36" etag="tGFYECMP1FGL6o9-k564" version="24.0.1" type="device">
  <diagram name="Trang-1" id="ovyDWQGt503q5KgdgaEu">
    <mxGraphModel dx="2876" dy="2223" grid="1" gridSize="10" guides="1" tooltips="1" connect="1" arrows="1" fold="1" page="1" pageScale="1" pageWidth="827" pageHeight="1169" math="0" shadow="0">
      <root>
        <mxCell id="0" />
        <mxCell id="1" parent="0" />
        <mxCell id="Ai0qh5NGWd-4S2OxqA1M-1" value="&lt;font style=&quot;font-size: 17px;&quot;&gt;Người dùng&lt;/font&gt;" style="shape=umlActor;verticalLabelPosition=bottom;verticalAlign=top;html=1;" parent="1" vertex="1">
          <mxGeometry x="-40" y="290" width="80" height="150" as="geometry" />
        </mxCell>
        <mxCell id="Ai0qh5NGWd-4S2OxqA1M-5" value="&lt;font style=&quot;font-size: 17px;&quot;&gt;Tìm kiến&lt;/font&gt;" style="ellipse;whiteSpace=wrap;html=1;align=center;" parent="1" vertex="1">
          <mxGeometry x="230" y="120" width="100" height="60" as="geometry" />
        </mxCell>
        <mxCell id="Ai0qh5NGWd-4S2OxqA1M-6" value="&lt;font style=&quot;font-size: 17px;&quot;&gt;Tài khoản&lt;/font&gt;" style="ellipse;whiteSpace=wrap;html=1;align=center;" parent="1" vertex="1">
          <mxGeometry x="230" y="200" width="100" height="60" as="geometry" />
        </mxCell>
        <mxCell id="Ai0qh5NGWd-4S2OxqA1M-7" value="&lt;font style=&quot;font-size: 16px;&quot;&gt;Danh mục sản phẩm&lt;/font&gt;" style="ellipse;whiteSpace=wrap;html=1;align=center;" parent="1" vertex="1">
          <mxGeometry x="230" y="280" width="100" height="60" as="geometry" />
        </mxCell>
        <mxCell id="Ai0qh5NGWd-4S2OxqA1M-8" value="&lt;font style=&quot;font-size: 17px;&quot;&gt;Giỏ hành&lt;/font&gt;" style="ellipse;whiteSpace=wrap;html=1;align=center;" parent="1" vertex="1">
          <mxGeometry x="230" y="360" width="100" height="60" as="geometry" />
        </mxCell>
        <mxCell id="Ai0qh5NGWd-4S2OxqA1M-9" value="&lt;font style=&quot;font-size: 16px;&quot;&gt;Tin tức sản phẩm&lt;/font&gt;" style="ellipse;whiteSpace=wrap;html=1;align=center;" parent="1" vertex="1">
          <mxGeometry x="230" y="440" width="100" height="60" as="geometry" />
        </mxCell>
        <mxCell id="Ai0qh5NGWd-4S2OxqA1M-10" value="&lt;font style=&quot;font-size: 17px;&quot;&gt;Chi tiết sản phẩm&lt;/font&gt;" style="ellipse;whiteSpace=wrap;html=1;align=center;" parent="1" vertex="1">
          <mxGeometry x="230" y="520" width="100" height="60" as="geometry" />
        </mxCell>
        <mxCell id="Ai0qh5NGWd-4S2OxqA1M-11" value="&lt;font style=&quot;font-size: 17px;&quot;&gt;Bình luận&lt;/font&gt;" style="ellipse;whiteSpace=wrap;html=1;align=center;" parent="1" vertex="1">
          <mxGeometry x="230" y="600" width="100" height="60" as="geometry" />
        </mxCell>
        <mxCell id="Ai0qh5NGWd-4S2OxqA1M-12" value="Đăng kí" style="ellipse;whiteSpace=wrap;html=1;align=center;" parent="1" vertex="1">
          <mxGeometry x="400" y="180" width="100" height="40" as="geometry" />
        </mxCell>
        <mxCell id="Ai0qh5NGWd-4S2OxqA1M-13" value="Đăng nhập" style="ellipse;whiteSpace=wrap;html=1;align=center;" parent="1" vertex="1">
          <mxGeometry x="400" y="230" width="100" height="40" as="geometry" />
        </mxCell>
        <mxCell id="Ai0qh5NGWd-4S2OxqA1M-14" value="Tên sản phẩm" style="ellipse;whiteSpace=wrap;html=1;align=center;" parent="1" vertex="1">
          <mxGeometry x="400" y="480" width="100" height="40" as="geometry" />
        </mxCell>
        <mxCell id="Ai0qh5NGWd-4S2OxqA1M-15" value="Hình ảnh" style="ellipse;whiteSpace=wrap;html=1;align=center;" parent="1" vertex="1">
          <mxGeometry x="400" y="530" width="100" height="40" as="geometry" />
        </mxCell>
        <mxCell id="Ai0qh5NGWd-4S2OxqA1M-16" value="Giá" style="ellipse;whiteSpace=wrap;html=1;align=center;" parent="1" vertex="1">
          <mxGeometry x="400" y="580" width="100" height="40" as="geometry" />
        </mxCell>
        <mxCell id="Ai0qh5NGWd-4S2OxqA1M-17" value="Thông tin sản phẩm" style="ellipse;whiteSpace=wrap;html=1;align=center;" parent="1" vertex="1">
          <mxGeometry x="400" y="630" width="100" height="40" as="geometry" />
        </mxCell>
        <mxCell id="Ai0qh5NGWd-4S2OxqA1M-18" value="&lt;font style=&quot;font-size: 18px;&quot;&gt;Quản lý danh mục&lt;/font&gt;" style="ellipse;whiteSpace=wrap;html=1;align=center;" parent="1" vertex="1">
          <mxGeometry x="870" y="40" width="100" height="60" as="geometry" />
        </mxCell>
        <mxCell id="Ai0qh5NGWd-4S2OxqA1M-19" value="&lt;font style=&quot;font-size: 17px;&quot;&gt;Quản lý sản phẩm&lt;/font&gt;" style="ellipse;whiteSpace=wrap;html=1;align=center;" parent="1" vertex="1">
          <mxGeometry x="870" y="240" width="100" height="60" as="geometry" />
        </mxCell>
        <mxCell id="Ai0qh5NGWd-4S2OxqA1M-20" value="&lt;font style=&quot;font-size: 17px;&quot;&gt;Quản lý nhân viên&lt;/font&gt;" style="ellipse;whiteSpace=wrap;html=1;align=center;" parent="1" vertex="1">
          <mxGeometry x="870" y="440" width="100" height="60" as="geometry" />
        </mxCell>
        <mxCell id="Ai0qh5NGWd-4S2OxqA1M-21" value="&lt;font style=&quot;font-size: 15px;&quot;&gt;Quản lý bình luận&lt;/font&gt;" style="ellipse;whiteSpace=wrap;html=1;align=center;" parent="1" vertex="1">
          <mxGeometry x="870" y="640" width="100" height="60" as="geometry" />
        </mxCell>
        <mxCell id="Ai0qh5NGWd-4S2OxqA1M-22" value="&lt;font style=&quot;font-size: 17px;&quot;&gt;Thống kê&lt;/font&gt;" style="ellipse;whiteSpace=wrap;html=1;align=center;" parent="1" vertex="1">
          <mxGeometry x="870" y="760" width="100" height="60" as="geometry" />
        </mxCell>
        <mxCell id="Ai0qh5NGWd-4S2OxqA1M-23" value="&lt;font style=&quot;font-size: 17px;&quot;&gt;Hóa đơn&lt;/font&gt;" style="ellipse;whiteSpace=wrap;html=1;align=center;" parent="1" vertex="1">
          <mxGeometry x="870" y="920" width="100" height="60" as="geometry" />
        </mxCell>
        <mxCell id="Ai0qh5NGWd-4S2OxqA1M-24" value="&lt;font style=&quot;font-size: 15px;&quot;&gt;Ý kiến khách hàng&lt;/font&gt;" style="ellipse;whiteSpace=wrap;html=1;align=center;" parent="1" vertex="1">
          <mxGeometry x="870" y="1080" width="100" height="60" as="geometry" />
        </mxCell>
        <mxCell id="Ai0qh5NGWd-4S2OxqA1M-25" value="Thêm" style="ellipse;whiteSpace=wrap;html=1;align=center;" parent="1" vertex="1">
          <mxGeometry x="670" y="-50" width="100" height="40" as="geometry" />
        </mxCell>
        <mxCell id="Ai0qh5NGWd-4S2OxqA1M-26" value="Sửa" style="ellipse;whiteSpace=wrap;html=1;align=center;" parent="1" vertex="1">
          <mxGeometry x="670" y="10" width="100" height="40" as="geometry" />
        </mxCell>
        <mxCell id="Ai0qh5NGWd-4S2OxqA1M-27" value="Xóa" style="ellipse;whiteSpace=wrap;html=1;align=center;" parent="1" vertex="1">
          <mxGeometry x="670" y="60" width="100" height="40" as="geometry" />
        </mxCell>
        <mxCell id="Ai0qh5NGWd-4S2OxqA1M-28" value="Tìm kiếm" style="ellipse;whiteSpace=wrap;html=1;align=center;" parent="1" vertex="1">
          <mxGeometry x="670" y="110" width="100" height="40" as="geometry" />
        </mxCell>
        <mxCell id="Ai0qh5NGWd-4S2OxqA1M-29" value="Thêm" style="ellipse;whiteSpace=wrap;html=1;align=center;" parent="1" vertex="1">
          <mxGeometry x="670" y="180" width="100" height="40" as="geometry" />
        </mxCell>
        <mxCell id="Ai0qh5NGWd-4S2OxqA1M-30" value="Sửa" style="ellipse;whiteSpace=wrap;html=1;align=center;" parent="1" vertex="1">
          <mxGeometry x="670" y="230" width="100" height="40" as="geometry" />
        </mxCell>
        <mxCell id="Ai0qh5NGWd-4S2OxqA1M-31" value="Xóa" style="ellipse;whiteSpace=wrap;html=1;align=center;" parent="1" vertex="1">
          <mxGeometry x="670" y="280" width="100" height="40" as="geometry" />
        </mxCell>
        <mxCell id="Ai0qh5NGWd-4S2OxqA1M-32" value="Tìm kiếm" style="ellipse;whiteSpace=wrap;html=1;align=center;" parent="1" vertex="1">
          <mxGeometry x="670" y="330" width="100" height="40" as="geometry" />
        </mxCell>
        <mxCell id="Ai0qh5NGWd-4S2OxqA1M-33" value="Thêm" style="ellipse;whiteSpace=wrap;html=1;align=center;" parent="1" vertex="1">
          <mxGeometry x="670" y="395" width="100" height="40" as="geometry" />
        </mxCell>
        <mxCell id="Ai0qh5NGWd-4S2OxqA1M-34" value="Sửa" style="ellipse;whiteSpace=wrap;html=1;align=center;" parent="1" vertex="1">
          <mxGeometry x="670" y="445" width="100" height="40" as="geometry" />
        </mxCell>
        <mxCell id="Ai0qh5NGWd-4S2OxqA1M-35" value="Xóa" style="ellipse;whiteSpace=wrap;html=1;align=center;" parent="1" vertex="1">
          <mxGeometry x="670" y="495" width="100" height="40" as="geometry" />
        </mxCell>
        <mxCell id="Ai0qh5NGWd-4S2OxqA1M-36" value="Tìm kiếm" style="ellipse;whiteSpace=wrap;html=1;align=center;" parent="1" vertex="1">
          <mxGeometry x="670" y="545" width="100" height="40" as="geometry" />
        </mxCell>
        <mxCell id="Ai0qh5NGWd-4S2OxqA1M-38" value="Xóa" style="ellipse;whiteSpace=wrap;html=1;align=center;" parent="1" vertex="1">
          <mxGeometry x="670" y="630" width="100" height="40" as="geometry" />
        </mxCell>
        <mxCell id="Ai0qh5NGWd-4S2OxqA1M-39" value="Tìm kiếm" style="ellipse;whiteSpace=wrap;html=1;align=center;" parent="1" vertex="1">
          <mxGeometry x="670" y="680" width="100" height="40" as="geometry" />
        </mxCell>
        <mxCell id="Ai0qh5NGWd-4S2OxqA1M-40" value="Xem biểu đồ" style="ellipse;whiteSpace=wrap;html=1;align=center;" parent="1" vertex="1">
          <mxGeometry x="670" y="750" width="100" height="40" as="geometry" />
        </mxCell>
        <mxCell id="Ai0qh5NGWd-4S2OxqA1M-41" value="Tìm kiếm" style="ellipse;whiteSpace=wrap;html=1;align=center;" parent="1" vertex="1">
          <mxGeometry x="670" y="800" width="100" height="40" as="geometry" />
        </mxCell>
        <mxCell id="Ai0qh5NGWd-4S2OxqA1M-42" value="Tìm kiếm" style="ellipse;whiteSpace=wrap;html=1;align=center;" parent="1" vertex="1">
          <mxGeometry x="670" y="880" width="100" height="40" as="geometry" />
        </mxCell>
        <mxCell id="Ai0qh5NGWd-4S2OxqA1M-43" value="Duyệt đơn" style="ellipse;whiteSpace=wrap;html=1;align=center;" parent="1" vertex="1">
          <mxGeometry x="670" y="930" width="100" height="40" as="geometry" />
        </mxCell>
        <mxCell id="Ai0qh5NGWd-4S2OxqA1M-44" value="Từ chối duyệt đơn" style="ellipse;whiteSpace=wrap;html=1;align=center;" parent="1" vertex="1">
          <mxGeometry x="670" y="980" width="100" height="40" as="geometry" />
        </mxCell>
        <mxCell id="Ai0qh5NGWd-4S2OxqA1M-45" value="Phản hồi khách hàng" style="ellipse;whiteSpace=wrap;html=1;align=center;" parent="1" vertex="1">
          <mxGeometry x="670" y="1080" width="100" height="40" as="geometry" />
        </mxCell>
        <mxCell id="Ai0qh5NGWd-4S2OxqA1M-46" value="Lý do" style="ellipse;whiteSpace=wrap;html=1;align=center;" parent="1" vertex="1">
          <mxGeometry x="520" y="980" width="100" height="40" as="geometry" />
        </mxCell>
        <mxCell id="Ai0qh5NGWd-4S2OxqA1M-48" value="&lt;font style=&quot;font-size: 17px;&quot;&gt;Quản trị&lt;/font&gt;" style="shape=umlActor;verticalLabelPosition=bottom;verticalAlign=top;html=1;" parent="1" vertex="1">
          <mxGeometry x="1161" y="200" width="80" height="150" as="geometry" />
        </mxCell>
        <mxCell id="Ai0qh5NGWd-4S2OxqA1M-49" value="&lt;font style=&quot;font-size: 17px;&quot;&gt;Nhân viên&lt;/font&gt;" style="shape=umlActor;verticalLabelPosition=bottom;verticalAlign=top;html=1;strokeColor=#000000;" parent="1" vertex="1">
          <mxGeometry x="1161" y="610" width="80" height="150" as="geometry" />
        </mxCell>
        <mxCell id="Ai0qh5NGWd-4S2OxqA1M-51" value="" style="endArrow=none;html=1;rounded=0;entryX=0;entryY=0.5;entryDx=0;entryDy=0;exitX=1;exitY=0.3333333333333333;exitDx=0;exitDy=0;exitPerimeter=0;" parent="1" source="Ai0qh5NGWd-4S2OxqA1M-1" target="Ai0qh5NGWd-4S2OxqA1M-5" edge="1">
          <mxGeometry relative="1" as="geometry">
            <mxPoint y="199.05" as="sourcePoint" />
            <mxPoint x="170" y="199.05" as="targetPoint" />
          </mxGeometry>
        </mxCell>
        <mxCell id="Ai0qh5NGWd-4S2OxqA1M-52" value="" style="endArrow=none;html=1;rounded=0;entryX=0;entryY=0.5;entryDx=0;entryDy=0;exitX=1;exitY=0.3333333333333333;exitDx=0;exitDy=0;exitPerimeter=0;" parent="1" source="Ai0qh5NGWd-4S2OxqA1M-1" target="Ai0qh5NGWd-4S2OxqA1M-6" edge="1">
          <mxGeometry relative="1" as="geometry">
            <mxPoint x="30" y="410" as="sourcePoint" />
            <mxPoint x="220" y="210" as="targetPoint" />
          </mxGeometry>
        </mxCell>
        <mxCell id="Ai0qh5NGWd-4S2OxqA1M-53" value="" style="endArrow=none;html=1;rounded=0;entryX=0;entryY=0.5;entryDx=0;entryDy=0;" parent="1" target="Ai0qh5NGWd-4S2OxqA1M-7" edge="1">
          <mxGeometry relative="1" as="geometry">
            <mxPoint x="40" y="340" as="sourcePoint" />
            <mxPoint x="230" y="260" as="targetPoint" />
          </mxGeometry>
        </mxCell>
        <mxCell id="Ai0qh5NGWd-4S2OxqA1M-54" value="" style="endArrow=none;html=1;rounded=0;entryX=0;entryY=0.5;entryDx=0;entryDy=0;exitX=1;exitY=0.3333333333333333;exitDx=0;exitDy=0;exitPerimeter=0;" parent="1" source="Ai0qh5NGWd-4S2OxqA1M-1" target="Ai0qh5NGWd-4S2OxqA1M-8" edge="1">
          <mxGeometry relative="1" as="geometry">
            <mxPoint x="40" y="380" as="sourcePoint" />
            <mxPoint x="230" y="340" as="targetPoint" />
          </mxGeometry>
        </mxCell>
        <mxCell id="Ai0qh5NGWd-4S2OxqA1M-55" value="" style="endArrow=none;html=1;rounded=0;entryX=0;entryY=0.5;entryDx=0;entryDy=0;exitX=1;exitY=0.3333333333333333;exitDx=0;exitDy=0;exitPerimeter=0;" parent="1" source="Ai0qh5NGWd-4S2OxqA1M-1" target="Ai0qh5NGWd-4S2OxqA1M-9" edge="1">
          <mxGeometry relative="1" as="geometry">
            <mxPoint x="30" y="370" as="sourcePoint" />
            <mxPoint x="220" y="410" as="targetPoint" />
          </mxGeometry>
        </mxCell>
        <mxCell id="Ai0qh5NGWd-4S2OxqA1M-56" value="" style="endArrow=none;html=1;rounded=0;entryX=0;entryY=0.5;entryDx=0;entryDy=0;exitX=1;exitY=0.3333333333333333;exitDx=0;exitDy=0;exitPerimeter=0;" parent="1" source="Ai0qh5NGWd-4S2OxqA1M-1" target="Ai0qh5NGWd-4S2OxqA1M-10" edge="1">
          <mxGeometry relative="1" as="geometry">
            <mxPoint x="30" y="365" as="sourcePoint" />
            <mxPoint x="220" y="485" as="targetPoint" />
          </mxGeometry>
        </mxCell>
        <mxCell id="Ai0qh5NGWd-4S2OxqA1M-57" value="" style="endArrow=none;html=1;rounded=0;entryX=0;entryY=0.5;entryDx=0;entryDy=0;exitX=1;exitY=0.3333333333333333;exitDx=0;exitDy=0;exitPerimeter=0;" parent="1" source="Ai0qh5NGWd-4S2OxqA1M-1" target="Ai0qh5NGWd-4S2OxqA1M-11" edge="1">
          <mxGeometry relative="1" as="geometry">
            <mxPoint x="30" y="350" as="sourcePoint" />
            <mxPoint x="220" y="550" as="targetPoint" />
          </mxGeometry>
        </mxCell>
        <mxCell id="Ai0qh5NGWd-4S2OxqA1M-59" value="" style="endArrow=none;html=1;rounded=0;entryX=0;entryY=0.5;entryDx=0;entryDy=0;exitX=1;exitY=0.5;exitDx=0;exitDy=0;" parent="1" source="Ai0qh5NGWd-4S2OxqA1M-6" target="Ai0qh5NGWd-4S2OxqA1M-12" edge="1">
          <mxGeometry relative="1" as="geometry">
            <mxPoint x="340" y="240" as="sourcePoint" />
            <mxPoint x="540" y="30" as="targetPoint" />
          </mxGeometry>
        </mxCell>
        <mxCell id="Ai0qh5NGWd-4S2OxqA1M-60" value="" style="endArrow=none;html=1;rounded=0;entryX=0;entryY=0.5;entryDx=0;entryDy=0;exitX=1;exitY=0.5;exitDx=0;exitDy=0;" parent="1" source="Ai0qh5NGWd-4S2OxqA1M-6" target="Ai0qh5NGWd-4S2OxqA1M-13" edge="1">
          <mxGeometry relative="1" as="geometry">
            <mxPoint x="320" y="240" as="sourcePoint" />
            <mxPoint x="390" y="220" as="targetPoint" />
          </mxGeometry>
        </mxCell>
        <mxCell id="Ai0qh5NGWd-4S2OxqA1M-61" value="" style="endArrow=none;html=1;rounded=0;entryX=-0.025;entryY=0.676;entryDx=0;entryDy=0;exitX=1;exitY=0.5;exitDx=0;exitDy=0;entryPerimeter=0;" parent="1" source="Ai0qh5NGWd-4S2OxqA1M-10" target="Ai0qh5NGWd-4S2OxqA1M-14" edge="1">
          <mxGeometry relative="1" as="geometry">
            <mxPoint x="370" y="415" as="sourcePoint" />
            <mxPoint x="440" y="445" as="targetPoint" />
          </mxGeometry>
        </mxCell>
        <mxCell id="Ai0qh5NGWd-4S2OxqA1M-62" value="" style="endArrow=none;html=1;rounded=0;entryX=0;entryY=0.5;entryDx=0;entryDy=0;exitX=1;exitY=0.5;exitDx=0;exitDy=0;" parent="1" source="Ai0qh5NGWd-4S2OxqA1M-10" target="Ai0qh5NGWd-4S2OxqA1M-16" edge="1">
          <mxGeometry relative="1" as="geometry">
            <mxPoint x="330" y="570" as="sourcePoint" />
            <mxPoint x="400" y="580" as="targetPoint" />
          </mxGeometry>
        </mxCell>
        <mxCell id="Ai0qh5NGWd-4S2OxqA1M-63" value="" style="endArrow=none;html=1;rounded=0;entryX=0;entryY=0.5;entryDx=0;entryDy=0;exitX=1;exitY=0.5;exitDx=0;exitDy=0;" parent="1" source="Ai0qh5NGWd-4S2OxqA1M-10" target="Ai0qh5NGWd-4S2OxqA1M-15" edge="1">
          <mxGeometry relative="1" as="geometry">
            <mxPoint x="330" y="500" as="sourcePoint" />
            <mxPoint x="400" y="560" as="targetPoint" />
          </mxGeometry>
        </mxCell>
        <mxCell id="Ai0qh5NGWd-4S2OxqA1M-64" value="" style="endArrow=none;html=1;rounded=0;entryX=0;entryY=0.5;entryDx=0;entryDy=0;exitX=1;exitY=0.5;exitDx=0;exitDy=0;" parent="1" source="Ai0qh5NGWd-4S2OxqA1M-10" target="Ai0qh5NGWd-4S2OxqA1M-17" edge="1">
          <mxGeometry relative="1" as="geometry">
            <mxPoint x="320" y="570" as="sourcePoint" />
            <mxPoint x="390" y="630" as="targetPoint" />
          </mxGeometry>
        </mxCell>
        <mxCell id="Ai0qh5NGWd-4S2OxqA1M-65" value="" style="endArrow=none;html=1;rounded=0;exitX=1;exitY=0.5;exitDx=0;exitDy=0;" parent="1" source="Ai0qh5NGWd-4S2OxqA1M-25" edge="1">
          <mxGeometry relative="1" as="geometry">
            <mxPoint x="890" y="-50" as="sourcePoint" />
            <mxPoint x="870" y="70" as="targetPoint" />
          </mxGeometry>
        </mxCell>
        <mxCell id="Ai0qh5NGWd-4S2OxqA1M-66" value="" style="endArrow=none;html=1;rounded=0;entryX=0;entryY=0.5;entryDx=0;entryDy=0;exitX=1;exitY=0.5;exitDx=0;exitDy=0;" parent="1" source="Ai0qh5NGWd-4S2OxqA1M-26" target="Ai0qh5NGWd-4S2OxqA1M-18" edge="1">
          <mxGeometry relative="1" as="geometry">
            <mxPoint x="810" y="68.68" as="sourcePoint" />
            <mxPoint x="908" y="159.68" as="targetPoint" />
          </mxGeometry>
        </mxCell>
        <mxCell id="Ai0qh5NGWd-4S2OxqA1M-67" value="" style="endArrow=none;html=1;rounded=0;entryX=0;entryY=0.5;entryDx=0;entryDy=0;exitX=1;exitY=0.5;exitDx=0;exitDy=0;" parent="1" source="Ai0qh5NGWd-4S2OxqA1M-27" target="Ai0qh5NGWd-4S2OxqA1M-18" edge="1">
          <mxGeometry relative="1" as="geometry">
            <mxPoint x="840" y="120" as="sourcePoint" />
            <mxPoint x="940" y="160" as="targetPoint" />
          </mxGeometry>
        </mxCell>
        <mxCell id="Ai0qh5NGWd-4S2OxqA1M-68" value="" style="endArrow=none;html=1;rounded=0;entryX=0;entryY=0.5;entryDx=0;entryDy=0;exitX=1;exitY=0.5;exitDx=0;exitDy=0;" parent="1" source="Ai0qh5NGWd-4S2OxqA1M-28" target="Ai0qh5NGWd-4S2OxqA1M-18" edge="1">
          <mxGeometry relative="1" as="geometry">
            <mxPoint x="810" y="135" as="sourcePoint" />
            <mxPoint x="910" y="125" as="targetPoint" />
          </mxGeometry>
        </mxCell>
        <mxCell id="Ai0qh5NGWd-4S2OxqA1M-69" value="" style="endArrow=none;html=1;rounded=0;entryX=0;entryY=0.5;entryDx=0;entryDy=0;exitX=1;exitY=0.5;exitDx=0;exitDy=0;" parent="1" source="Ai0qh5NGWd-4S2OxqA1M-29" target="Ai0qh5NGWd-4S2OxqA1M-19" edge="1">
          <mxGeometry relative="1" as="geometry">
            <mxPoint x="856" y="206" as="sourcePoint" />
            <mxPoint x="970" y="160" as="targetPoint" />
          </mxGeometry>
        </mxCell>
        <mxCell id="Ai0qh5NGWd-4S2OxqA1M-70" value="" style="endArrow=none;html=1;rounded=0;entryX=0;entryY=0.5;entryDx=0;entryDy=0;exitX=1;exitY=0.5;exitDx=0;exitDy=0;" parent="1" source="Ai0qh5NGWd-4S2OxqA1M-30" target="Ai0qh5NGWd-4S2OxqA1M-19" edge="1">
          <mxGeometry relative="1" as="geometry">
            <mxPoint x="827" y="320" as="sourcePoint" />
            <mxPoint x="927" y="400" as="targetPoint" />
          </mxGeometry>
        </mxCell>
        <mxCell id="Ai0qh5NGWd-4S2OxqA1M-71" value="" style="endArrow=none;html=1;rounded=0;entryX=0;entryY=0.5;entryDx=0;entryDy=0;exitX=1;exitY=0.5;exitDx=0;exitDy=0;" parent="1" source="Ai0qh5NGWd-4S2OxqA1M-31" target="Ai0qh5NGWd-4S2OxqA1M-19" edge="1">
          <mxGeometry relative="1" as="geometry">
            <mxPoint x="830" y="320" as="sourcePoint" />
            <mxPoint x="930" y="350" as="targetPoint" />
          </mxGeometry>
        </mxCell>
        <mxCell id="Ai0qh5NGWd-4S2OxqA1M-72" value="" style="endArrow=none;html=1;rounded=0;entryX=0;entryY=0.5;entryDx=0;entryDy=0;exitX=1;exitY=0.5;exitDx=0;exitDy=0;" parent="1" source="Ai0qh5NGWd-4S2OxqA1M-32" target="Ai0qh5NGWd-4S2OxqA1M-19" edge="1">
          <mxGeometry relative="1" as="geometry">
            <mxPoint x="840" y="350" as="sourcePoint" />
            <mxPoint x="940" y="330" as="targetPoint" />
          </mxGeometry>
        </mxCell>
        <mxCell id="Ai0qh5NGWd-4S2OxqA1M-73" value="" style="endArrow=none;html=1;rounded=0;entryX=0;entryY=0.5;entryDx=0;entryDy=0;exitX=1;exitY=0.5;exitDx=0;exitDy=0;" parent="1" source="Ai0qh5NGWd-4S2OxqA1M-33" target="Ai0qh5NGWd-4S2OxqA1M-20" edge="1">
          <mxGeometry relative="1" as="geometry">
            <mxPoint x="810" y="445" as="sourcePoint" />
            <mxPoint x="910" y="375" as="targetPoint" />
          </mxGeometry>
        </mxCell>
        <mxCell id="Ai0qh5NGWd-4S2OxqA1M-74" value="" style="endArrow=none;html=1;rounded=0;entryX=0;entryY=0.5;entryDx=0;entryDy=0;exitX=1;exitY=0.5;exitDx=0;exitDy=0;" parent="1" source="Ai0qh5NGWd-4S2OxqA1M-34" target="Ai0qh5NGWd-4S2OxqA1M-20" edge="1">
          <mxGeometry relative="1" as="geometry">
            <mxPoint x="790" y="485" as="sourcePoint" />
            <mxPoint x="890" y="560" as="targetPoint" />
          </mxGeometry>
        </mxCell>
        <mxCell id="Ai0qh5NGWd-4S2OxqA1M-75" value="" style="endArrow=none;html=1;rounded=0;entryX=0;entryY=0.5;entryDx=0;entryDy=0;exitX=1;exitY=0.5;exitDx=0;exitDy=0;" parent="1" source="Ai0qh5NGWd-4S2OxqA1M-35" target="Ai0qh5NGWd-4S2OxqA1M-20" edge="1">
          <mxGeometry relative="1" as="geometry">
            <mxPoint x="810" y="537.5" as="sourcePoint" />
            <mxPoint x="910" y="562.5" as="targetPoint" />
          </mxGeometry>
        </mxCell>
        <mxCell id="Ai0qh5NGWd-4S2OxqA1M-76" value="" style="endArrow=none;html=1;rounded=0;entryX=0;entryY=0.5;entryDx=0;entryDy=0;exitX=1;exitY=0.5;exitDx=0;exitDy=0;" parent="1" source="Ai0qh5NGWd-4S2OxqA1M-36" target="Ai0qh5NGWd-4S2OxqA1M-20" edge="1">
          <mxGeometry relative="1" as="geometry">
            <mxPoint x="820" y="577.5" as="sourcePoint" />
            <mxPoint x="920" y="552.5" as="targetPoint" />
          </mxGeometry>
        </mxCell>
        <mxCell id="Ai0qh5NGWd-4S2OxqA1M-77" value="" style="endArrow=none;html=1;rounded=0;entryX=0;entryY=0.5;entryDx=0;entryDy=0;exitX=1;exitY=0.5;exitDx=0;exitDy=0;" parent="1" source="Ai0qh5NGWd-4S2OxqA1M-38" target="Ai0qh5NGWd-4S2OxqA1M-21" edge="1">
          <mxGeometry relative="1" as="geometry">
            <mxPoint x="790" y="610" as="sourcePoint" />
            <mxPoint x="890" y="535" as="targetPoint" />
          </mxGeometry>
        </mxCell>
        <mxCell id="Ai0qh5NGWd-4S2OxqA1M-78" value="" style="endArrow=none;html=1;rounded=0;entryX=0;entryY=0.5;entryDx=0;entryDy=0;exitX=1;exitY=0.5;exitDx=0;exitDy=0;" parent="1" source="Ai0qh5NGWd-4S2OxqA1M-39" target="Ai0qh5NGWd-4S2OxqA1M-21" edge="1">
          <mxGeometry relative="1" as="geometry">
            <mxPoint x="770" y="680" as="sourcePoint" />
            <mxPoint x="870" y="700" as="targetPoint" />
          </mxGeometry>
        </mxCell>
        <mxCell id="Ai0qh5NGWd-4S2OxqA1M-79" value="" style="endArrow=none;html=1;rounded=0;entryX=0;entryY=0.5;entryDx=0;entryDy=0;exitX=1;exitY=0.5;exitDx=0;exitDy=0;" parent="1" source="Ai0qh5NGWd-4S2OxqA1M-40" target="Ai0qh5NGWd-4S2OxqA1M-22" edge="1">
          <mxGeometry relative="1" as="geometry">
            <mxPoint x="790" y="760" as="sourcePoint" />
            <mxPoint x="890" y="730" as="targetPoint" />
          </mxGeometry>
        </mxCell>
        <mxCell id="Ai0qh5NGWd-4S2OxqA1M-80" value="" style="endArrow=none;html=1;rounded=0;exitX=1;exitY=0.5;exitDx=0;exitDy=0;entryX=0;entryY=0.5;entryDx=0;entryDy=0;" parent="1" source="Ai0qh5NGWd-4S2OxqA1M-41" target="Ai0qh5NGWd-4S2OxqA1M-22" edge="1">
          <mxGeometry relative="1" as="geometry">
            <mxPoint x="810" y="830" as="sourcePoint" />
            <mxPoint x="860" y="830" as="targetPoint" />
          </mxGeometry>
        </mxCell>
        <mxCell id="Ai0qh5NGWd-4S2OxqA1M-81" value="" style="endArrow=none;html=1;rounded=0;exitX=1;exitY=0.5;exitDx=0;exitDy=0;entryX=0;entryY=0.5;entryDx=0;entryDy=0;" parent="1" source="Ai0qh5NGWd-4S2OxqA1M-42" target="Ai0qh5NGWd-4S2OxqA1M-23" edge="1">
          <mxGeometry relative="1" as="geometry">
            <mxPoint x="790" y="900" as="sourcePoint" />
            <mxPoint x="890" y="880" as="targetPoint" />
          </mxGeometry>
        </mxCell>
        <mxCell id="Ai0qh5NGWd-4S2OxqA1M-82" value="" style="endArrow=none;html=1;rounded=0;exitX=1;exitY=0.5;exitDx=0;exitDy=0;" parent="1" source="Ai0qh5NGWd-4S2OxqA1M-43" edge="1">
          <mxGeometry relative="1" as="geometry">
            <mxPoint x="780" y="950" as="sourcePoint" />
            <mxPoint x="870" y="950" as="targetPoint" />
          </mxGeometry>
        </mxCell>
        <mxCell id="Ai0qh5NGWd-4S2OxqA1M-83" value="" style="endArrow=none;html=1;rounded=0;exitX=1;exitY=0.5;exitDx=0;exitDy=0;entryX=0;entryY=0.5;entryDx=0;entryDy=0;" parent="1" source="Ai0qh5NGWd-4S2OxqA1M-44" target="Ai0qh5NGWd-4S2OxqA1M-23" edge="1">
          <mxGeometry relative="1" as="geometry">
            <mxPoint x="800" y="990" as="sourcePoint" />
            <mxPoint x="900" y="980" as="targetPoint" />
          </mxGeometry>
        </mxCell>
        <mxCell id="Ai0qh5NGWd-4S2OxqA1M-84" value="" style="endArrow=none;html=1;rounded=0;exitX=1;exitY=0.5;exitDx=0;exitDy=0;entryX=0;entryY=0.5;entryDx=0;entryDy=0;" parent="1" source="Ai0qh5NGWd-4S2OxqA1M-46" target="Ai0qh5NGWd-4S2OxqA1M-44" edge="1">
          <mxGeometry relative="1" as="geometry">
            <mxPoint x="550" y="920" as="sourcePoint" />
            <mxPoint x="650" y="910" as="targetPoint" />
          </mxGeometry>
        </mxCell>
        <mxCell id="Ai0qh5NGWd-4S2OxqA1M-85" value="" style="endArrow=none;html=1;rounded=0;exitX=1;exitY=0.5;exitDx=0;exitDy=0;entryX=0;entryY=0.5;entryDx=0;entryDy=0;" parent="1" source="Ai0qh5NGWd-4S2OxqA1M-45" target="Ai0qh5NGWd-4S2OxqA1M-24" edge="1">
          <mxGeometry relative="1" as="geometry">
            <mxPoint x="850" y="1050" as="sourcePoint" />
            <mxPoint x="950" y="990" as="targetPoint" />
          </mxGeometry>
        </mxCell>
        <mxCell id="Ai0qh5NGWd-4S2OxqA1M-86" value="" style="endArrow=none;html=1;rounded=0;exitX=1;exitY=0.5;exitDx=0;exitDy=0;entryX=0;entryY=0.3333333333333333;entryDx=0;entryDy=0;entryPerimeter=0;" parent="1" source="Ai0qh5NGWd-4S2OxqA1M-18" target="Ai0qh5NGWd-4S2OxqA1M-48" edge="1">
          <mxGeometry relative="1" as="geometry">
            <mxPoint x="1020" y="90" as="sourcePoint" />
            <mxPoint x="1120" y="190" as="targetPoint" />
          </mxGeometry>
        </mxCell>
        <mxCell id="Ai0qh5NGWd-4S2OxqA1M-87" value="" style="endArrow=none;html=1;rounded=0;exitX=1;exitY=0.5;exitDx=0;exitDy=0;entryX=0;entryY=0.3333333333333333;entryDx=0;entryDy=0;entryPerimeter=0;" parent="1" source="Ai0qh5NGWd-4S2OxqA1M-19" target="Ai0qh5NGWd-4S2OxqA1M-48" edge="1">
          <mxGeometry relative="1" as="geometry">
            <mxPoint x="970" y="140" as="sourcePoint" />
            <mxPoint x="1161" y="320" as="targetPoint" />
          </mxGeometry>
        </mxCell>
        <mxCell id="Ai0qh5NGWd-4S2OxqA1M-88" value="" style="endArrow=none;html=1;rounded=0;exitX=1;exitY=0.5;exitDx=0;exitDy=0;entryX=0;entryY=0.3333333333333333;entryDx=0;entryDy=0;entryPerimeter=0;" parent="1" source="Ai0qh5NGWd-4S2OxqA1M-20" target="Ai0qh5NGWd-4S2OxqA1M-48" edge="1">
          <mxGeometry relative="1" as="geometry">
            <mxPoint x="950" y="380" as="sourcePoint" />
            <mxPoint x="1141" y="350" as="targetPoint" />
          </mxGeometry>
        </mxCell>
        <mxCell id="Ai0qh5NGWd-4S2OxqA1M-89" value="" style="endArrow=none;html=1;rounded=0;exitX=1;exitY=0.5;exitDx=0;exitDy=0;entryX=0;entryY=0.3333333333333333;entryDx=0;entryDy=0;entryPerimeter=0;" parent="1" source="Ai0qh5NGWd-4S2OxqA1M-21" target="Ai0qh5NGWd-4S2OxqA1M-48" edge="1">
          <mxGeometry relative="1" as="geometry">
            <mxPoint x="1000" y="650" as="sourcePoint" />
            <mxPoint x="1191" y="410" as="targetPoint" />
          </mxGeometry>
        </mxCell>
        <mxCell id="Ai0qh5NGWd-4S2OxqA1M-90" value="" style="endArrow=none;html=1;rounded=0;exitX=1;exitY=0.5;exitDx=0;exitDy=0;entryX=0;entryY=0.3333333333333333;entryDx=0;entryDy=0;entryPerimeter=0;" parent="1" source="Ai0qh5NGWd-4S2OxqA1M-22" target="Ai0qh5NGWd-4S2OxqA1M-48" edge="1">
          <mxGeometry relative="1" as="geometry">
            <mxPoint x="1000" y="700" as="sourcePoint" />
            <mxPoint x="1191" y="280" as="targetPoint" />
          </mxGeometry>
        </mxCell>
        <mxCell id="Ai0qh5NGWd-4S2OxqA1M-91" value="" style="endArrow=none;html=1;rounded=0;exitX=1;exitY=0.5;exitDx=0;exitDy=0;entryX=0;entryY=0.3333333333333333;entryDx=0;entryDy=0;entryPerimeter=0;" parent="1" source="Ai0qh5NGWd-4S2OxqA1M-23" target="Ai0qh5NGWd-4S2OxqA1M-48" edge="1">
          <mxGeometry relative="1" as="geometry">
            <mxPoint x="1060" y="810" as="sourcePoint" />
            <mxPoint x="1251" y="260" as="targetPoint" />
          </mxGeometry>
        </mxCell>
        <mxCell id="Ai0qh5NGWd-4S2OxqA1M-92" value="" style="endArrow=none;html=1;rounded=0;exitX=1;exitY=0.5;exitDx=0;exitDy=0;entryX=0;entryY=0.3333333333333333;entryDx=0;entryDy=0;entryPerimeter=0;" parent="1" source="Ai0qh5NGWd-4S2OxqA1M-24" target="Ai0qh5NGWd-4S2OxqA1M-48" edge="1">
          <mxGeometry relative="1" as="geometry">
            <mxPoint x="1010" y="995" as="sourcePoint" />
            <mxPoint x="1201" y="305" as="targetPoint" />
          </mxGeometry>
        </mxCell>
        <mxCell id="Ai0qh5NGWd-4S2OxqA1M-93" value="" style="endArrow=none;html=1;rounded=0;exitX=1;exitY=0.5;exitDx=0;exitDy=0;entryX=0;entryY=0.3333333333333333;entryDx=0;entryDy=0;entryPerimeter=0;" parent="1" source="Ai0qh5NGWd-4S2OxqA1M-18" target="Ai0qh5NGWd-4S2OxqA1M-49" edge="1">
          <mxGeometry relative="1" as="geometry">
            <mxPoint x="1260" y="180" as="sourcePoint" />
            <mxPoint x="1451" y="360" as="targetPoint" />
          </mxGeometry>
        </mxCell>
        <mxCell id="Ai0qh5NGWd-4S2OxqA1M-94" value="" style="endArrow=none;html=1;rounded=0;exitX=1;exitY=0.5;exitDx=0;exitDy=0;entryX=0;entryY=0.3333333333333333;entryDx=0;entryDy=0;entryPerimeter=0;" parent="1" source="Ai0qh5NGWd-4S2OxqA1M-19" target="Ai0qh5NGWd-4S2OxqA1M-49" edge="1">
          <mxGeometry relative="1" as="geometry">
            <mxPoint x="930" y="130" as="sourcePoint" />
            <mxPoint x="1121" y="720" as="targetPoint" />
          </mxGeometry>
        </mxCell>
        <mxCell id="Ai0qh5NGWd-4S2OxqA1M-95" value="" style="endArrow=none;html=1;rounded=0;exitX=1;exitY=0.5;exitDx=0;exitDy=0;entryX=0;entryY=0.3333333333333333;entryDx=0;entryDy=0;entryPerimeter=0;" parent="1" source="Ai0qh5NGWd-4S2OxqA1M-21" target="Ai0qh5NGWd-4S2OxqA1M-49" edge="1">
          <mxGeometry relative="1" as="geometry">
            <mxPoint x="980" y="435" as="sourcePoint" />
            <mxPoint x="1171" y="815" as="targetPoint" />
          </mxGeometry>
        </mxCell>
        <mxCell id="Ai0qh5NGWd-4S2OxqA1M-96" value="" style="endArrow=none;html=1;rounded=0;exitX=1;exitY=0.5;exitDx=0;exitDy=0;entryX=0;entryY=0.3333333333333333;entryDx=0;entryDy=0;entryPerimeter=0;" parent="1" source="Ai0qh5NGWd-4S2OxqA1M-24" target="Ai0qh5NGWd-4S2OxqA1M-49" edge="1">
          <mxGeometry relative="1" as="geometry">
            <mxPoint x="1200" y="850" as="sourcePoint" />
            <mxPoint x="1391" y="840" as="targetPoint" />
          </mxGeometry>
        </mxCell>
      </root>
    </mxGraphModel>
  </diagram>
</mxfile>
